# xmcd
#
# Track frame offsets:
#	182
#	17210
#	31022
#	46702
#	61465
#	75745
#	93172
#	119640
#	137682
#	155757
#	171430
#	193872
#	218245
#	234587
#	247790
#	261880
#	282790
#	297712
#
# Disc length: 4147 seconds
#
# Revision: 1
# Processed by: cddbd v1.4b42PL1 Copyright (c) Steve Scherf et al.
# Submitted via: audiograbber 1.80
#
DISCID=06103112
DTITLE=Harry Belafonte - Greatest Hits Disc2
DYEAR=1900
DGENRE=
TTITLE0=Shenandoah
TTITLE1=This Land Is Your Land
TTITLE2=Scarborough Fair - Canticle
TTITLE3=Waltzing Matilda
TTITLE4=Go Away From My Window
TTITLE5=Homeward Bound
TTITLE6=Danny Boy
TTITLE7=Abraham, Martin, And John
TTITLE8=Michael, Row Your Boat Ashore
TTITLE9=Try To Remember
TTITLE10=Mr. Bojangles
TTITLE11=The Last Time I Saw Her
TTITLE12=If I Were A Carpenter
TTITLE13=Four Strong Winds
TTITLE14=Amen
TTITLE15=Where Were You When They Crucified My Lord-
TTITLE16=In That Great Gettin Up Mornin
TTITLE17=Mary's Boy Child
EXTD=
EXTT0=
EXTT1=
EXTT2=
EXTT3=
EXTT4=
EXTT5=
EXTT6=
EXTT7=
EXTT8=
EXTT9=
EXTT10=
EXTT11=
EXTT12=
EXTT13=
EXTT14=
EXTT15=
EXTT16=
EXTT17=
PLAYORDER=
